<?xml version="1.0" encoding="UTF-8"?>
<svg id="Layer_1" data-name="Layer 1" xmlns="http://www.w3.org/2000/svg" viewBox="0 0 838.96 754.79">
  <defs>
    <style>
      .cls-1 {
        fill: #3e4095;
        stroke-width: 0px;
      }
    </style>
  </defs>
  <path class="cls-1" d="M243.2,754.79h-54.99v-17.66c-32.17,18.05-65.07,21.49-99.05,9.61-22.94-8.02-41.3-22.5-55.29-42.45-28.69-40.92-27.24-97.96,4.4-137.28,17.99-22.36,41.17-36.36,69.42-41.5,28.18-5.13,54.73-.07,80.24,14.52v-13.72h55.26v228.49ZM188.15,639.5c0-5.9.11-10.66-.05-15.41-.07-2.07-.37-4.22-1.07-6.15-10.73-29.9-41-45-67.78-40.91-33.54,5.12-57.78,36.93-52.49,70.9,5.07,32.56,34.5,55.2,65.58,52.62,25.35-2.1,42.77-15.27,53.49-38.02,3.69-7.84,1.73-16.1,2.32-23.02Z"/>
  <path class="cls-1" d="M784.01,754.74v-17.54c-34.53,19.14-69.65,21.92-105.48,6.98-22.44-9.35-39.94-24.96-52.62-45.76-25.91-42.49-20.96-97.44,11.05-135.04,28.67-33.67,87.95-56.75,146.82-23.61v-13.56h55.18v228.52h-54.95ZM783.97,638.87c0-5.02.07-10.05-.04-15.07-.04-1.81-.29-3.7-.86-5.41-9.32-27.88-38.47-45.68-67.52-41.29-43.72,6.6-67.2,53.91-45.43,92.02,11.83,20.72,30.41,31.3,53.97,31.8,16.53.35,31.34-5.81,43.2-17.56,10.71-10.61,18.4-22.83,16.71-38.93-.19-1.83-.03-3.7-.03-5.55Z"/>
  <path class="cls-1" d="M531.78,593.9c-29.19-26.43-67.61-20.8-89.43,2.73-21.93,23.65-21.8,59.53.53,84.51,18.25,20.42,60.58,32.21,92.84-1.66,10.8,13.84,21.55,27.63,32.29,41.39-31.88,34.23-97.15,47.69-147.74,10.53-54.22-39.83-63.05-116.02-19.34-167.58,42.33-49.93,116.4-52.74,162.83-11.8-10.63,13.92-21.3,27.89-31.98,41.88Z"/>
  <path class="cls-1" d="M346.5,754.78h-54.95v-327.85h54.95v327.85Z"/>
  <path class="cls-1" d="M649.3,310.02c-1.33,11.39-2.58,22.06-3.9,33.26h-4.72c-140.66,0-281.32-.02-421.99.05-7.14,0-12.25-2.85-15.22-9.19-1.07-2.29-2.64-2.15-4.49-2.15-23.4,0-46.8,0-70.2.01-2.94,0-5.66-.36-6.36-3.85-.85-4.24.98-6.22,5.71-6.22,23.27-.02,46.53-.06,69.8.05,2.94.01,4.73-.58,6.08-3.53,2.38-5.19,6.9-7.81,12.58-8.32,1.58-.14,3.17-.1,4.75-.1,140.53,0,281.06,0,421.59,0,1.83,0,3.65,0,6.37,0Z"/>
  <path class="cls-1" d="M654.65,265.78c-1.38,11.45-2.71,22.45-4.06,33.69-1.97,0-3.41,0-4.84,0-129.67,0-259.34,0-389.01.02-7.52,0-13.17-2.79-16.84-9.6-.63-1.16-2.86-2.04-4.35-2.05-22.87-.13-45.73-.09-68.6-.09-1.32,0-2.68.11-3.95-.14-2.68-.52-4.05-2.18-4.03-5.02.02-2.85,1.42-4.47,4.1-4.96,1.28-.23,2.63-.13,3.96-.13,22.6,0,45.21-.05,67.81.05,2.95.01,4.66-.67,6.08-3.54,2.67-5.41,7.66-7.71,13.52-8.22,1.05-.09,2.11-.02,3.17-.02,130.46,0,260.93,0,391.39,0h5.66Z"/>
  <path class="cls-1" d="M456.25,220.61c-3.02,3.75-5.61,6.98-8.61,10.71,1.72.15,2.82.33,3.92.33,13.88.02,27.76-.04,41.64.07,2.4.02,3.74-.6,4.87-2.86,2.84-5.67,7.58-8.5,14.05-8.5,47.99.03,95.97.02,143.96.03,1.16,0,2.33.14,3.99.25-1.32,11-2.62,21.76-3.97,33h-4.59c-45.74,0-91.48-.04-137.22.04-7.57.01-13.29-2.59-16.81-9.55-.45-.88-2.01-1.7-3.06-1.7-17.98-.1-35.96-.13-53.93.03-1.42.01-3.43,1.11-4.13,2.31-4.45,7.62-10.89,9.19-19.45,9.08-38.99-.48-77.99-.31-116.99-.13-8.22.04-14.76-1.91-18.56-9.88-.44-.92-2.59-1.43-3.95-1.43-22.74-.09-45.48-.05-68.21-.09-1.69,0-3.8.19-4.98-.69-1.67-1.24-3.47-3.28-3.74-5.18-.35-2.45,1.58-4.36,4.33-4.72,1.04-.14,2.11-.05,3.17-.05,23,0,46-.03,69.01.04,2.49,0,3.89-.54,5.17-2.98,2.73-5.23,7.19-8.34,13.37-8.34,52.75,0,105.49,0,158.24,0,.52,0,1.04.09,2.49.22Z"/>
  <path class="cls-1" d="M661.8,177.14v33.47h-4.75c-41.11,0-82.23-.01-123.34.01-7.1,0-12.37-2.81-15.88-9.15-.69-1.24-2.72-2.44-4.16-2.47-12.03-.2-24.06-.22-36.09.01-1.76.03-4.21,1.27-5.11,2.72-4.69,7.58-11.17,9.21-19.89,9.1-39.92-.52-79.85-.27-119.77-.19-7.59.01-13.16-2.83-16.79-9.67-.61-1.15-2.88-1.99-4.39-1.99-23.4-.12-46.8-.08-70.2-.1-4.3,0-6.21-1.53-6.29-4.83-.09-3.67,1.78-5.39,6.16-5.4,12.69-.04,25.38-.02,38.07-.02,10.71,0,21.42-.04,32.12.03,2.39.01,4-.32,5.26-2.91,2.84-5.83,8.03-8.77,14.41-8.78,52.88-.08,105.76-.03,158.64-.01.24,0,.48.14,1.31.39-2.31,3.58-4.54,7.03-7.02,10.87,1.34.17,2.31.4,3.28.4,8.73.03,17.45-.04,26.18.05,2.21.02,3.5-.57,4.58-2.71,2.98-5.95,8.13-8.99,14.7-9,42.7-.07,85.4-.02,128.1,0,.26,0,.51.1.86.18Z"/>
  <path class="cls-1" d="M532.08,130.11c-3.31,4.11-6.15,7.62-9.58,11.88,5.31,0,9.74.11,14.15-.1.84-.04,1.94-1.19,2.36-2.1,3.1-6.64,8.63-9.6,15.54-9.62,38.2-.13,76.39-.06,114.59-.04.51,0,1.02.14,1.73.25-1.32,11.04-2.62,21.97-3.98,33.42-1.45,0-2.86,0-4.26,0-35.95,0-71.9-.02-107.85.01-7.14,0-12.3-3-15.76-9.3-.64-1.16-2.51-2.26-3.85-2.32-6.07-.25-12.16-.28-18.23,0-1.72.08-4.16,1.01-4.95,2.33-4.84,8.15-11.81,9.62-20.89,9.5-39.25-.52-78.51-.25-117.76-.2-7.41.01-12.9-2.69-16.4-9.5-.64-1.25-3.17-2.14-4.83-2.15-22.6-.14-45.2-.09-67.8-.09-1.06,0-2.12-.04-3.17,0-3.46.14-5.19-1.8-5.44-4.96-.25-3.04,2.16-5.1,5.67-5.1,21.81-.02,43.62-.01,65.42-.01,1.45,0,2.93-.16,4.36.03,3.4.44,5.31-.71,6.96-3.99,3.14-6.23,9.17-7.92,15.69-7.93,33.44-.04,66.88-.02,100.32-.02,19.03,0,38.06,0,57.98,0Z"/>
  <path class="cls-1" d="M675.86,88.16c-.58,5.45-1.1,10.64-1.68,15.82-.48,4.31-1.08,8.62-1.52,12.93-.29,2.83-1.14,4.31-4.56,4.31-86.87-.1-173.74-.09-260.61-.07-6.86,0-12.1-2.83-15.03-9.01-1.18-2.49-2.84-2.29-4.79-2.29-23.14,0-46.28.08-69.42-.13-2.27-.02-5.45-1.28-6.59-3.02-2.36-3.62.58-7.45,5.39-7.5,8.46-.09,16.92-.03,25.39-.03,15.21,0,30.41-.03,45.62.03,2.18,0,3.49-.47,4.6-2.65,2.92-5.77,7.82-8.68,14.39-8.68,88.32.01,176.65,0,264.97.02,1.16,0,2.32.16,3.84.27Z"/>
  <path class="cls-1" d="M681.51,41.87c-1.37,11.3-2.66,21.99-4,33.08-1.69,0-3.11,0-4.53,0-74.3,0-148.61-.02-222.91.03-6.59,0-11.64-2.64-14.61-8.34-1.51-2.9-3.32-3.47-6.21-3.46-23.27.08-46.54.06-69.81.03-4.96,0-7.71-4.08-5.01-7.73,1-1.36,3.53-2.22,5.38-2.23,23.27-.15,46.54-.14,69.81-.04,2.79.01,4.35-.59,5.8-3.27,2.87-5.31,7.46-8.14,13.87-8.13,75.89.08,151.78.05,227.67.05,1.3,0,2.61,0,4.56,0Z"/>
  <path class="cls-1" d="M686.36.22c-.63,6.08-1.21,11.93-1.86,17.76-.46,4.18-1.12,8.35-1.49,12.53-.2,2.27-1.04,3.32-3.43,3.2-2.77-.14-5.55-.03-8.32-.03-65.42,0-130.83,0-196.25,0-7.8,0-14.17-2.25-17.87-9.85-.54-1.1-2.99-1.79-4.56-1.8-22.2-.11-44.4-.08-66.6-.08-1.32,0-2.65.04-3.96-.03-4-.21-5.94-2.03-5.78-5.46.18-3.71,2.41-4.81,5.85-4.79,18.24.07,36.47.03,54.71.03,5.42,0,10.84-.06,16.25.02,2.17.03,3.55-.45,4.62-2.7C460.53,3.02,465.61.02,472.25.02c70.04-.03,140.08-.02,210.12-.01,1.16,0,2.32.12,3.98.21Z"/>
  <path class="cls-1" d="M262.87,444.1c1.11,4.7,0,7.89-2.85,11.05-5.82,6.46-11.12,13.38-16.84,19.93-1.05,1.2-3.09,2.18-4.68,2.18-47.71.11-95.42.1-143.14.08-6.24,0-10.97-2.87-13.72-8.38-1.25-2.5-2.77-2.95-5.23-2.94-23.13.07-46.26.04-69.39.04-3,0-6.03-.16-6.81-3.85-.88-4.19,1.08-6.54,5.41-6.81,1.05-.07,2.11-.02,3.17-.02,22.6,0,45.2-.04,67.8.05,2.54,0,3.89-.64,5.13-3.07,3.13-6.13,8.56-8.33,15.37-8.32,53.79.09,107.58.05,161.38.05,1.43,0,2.86,0,4.4,0Z"/>
  <path class="cls-1" d="M344.1,351.72c-.74,2.07-.93,3.86-1.88,5.02-7.35,8.98-14.81,17.88-22.36,26.7-.79.93-2.39,1.64-3.61,1.65-46.67.08-93.33.12-140,.01-6.18-.01-11.41-2.72-14.18-8.45-1.39-2.87-3.2-3.25-5.92-3.24-22.61.07-45.21.04-67.82.03-1.45,0-2.96.12-4.34-.24-2.63-.69-3.87-2.61-3.71-5.34.16-2.77,1.58-4.4,4.4-4.6,1.32-.1,2.64-.06,3.96-.06,22.61,0,45.21-.03,67.82.04,2.62,0,4.25-.53,5.55-3.17,2.81-5.69,7.86-8.54,14.14-8.55,54.99-.07,109.99-.04,164.98-.03.64,0,1.29.1,2.96.24Z"/>
  <path class="cls-1" d="M300.41,398.33c.66,4.51.64,8.27-2.72,11.87-5.48,5.88-10.28,12.38-15.63,18.39-1.2,1.35-3.48,2.46-5.26,2.47-47.72.13-95.45.11-143.18.1-6.52,0-11.5-2.93-14.37-8.73-1.23-2.47-2.7-3.03-5.19-3.02-23.66.07-47.33,0-70.99.08-2.63,0-4.8-.91-5.06-3.31-.2-1.9.76-4.25,1.96-5.84.69-.91,2.87-.92,4.38-.93,23.14-.05,46.27-.08,69.41.02,2.8.01,4.38-.58,5.77-3.34,2.68-5.31,7.24-8.05,13.46-8.04,54.47.06,108.94.03,163.4.04,1.29,0,2.58.15,4,.24Z"/>
  <path class="cls-1" d="M638.59,399.9c-1.33,10.99-2.62,21.65-3.97,32.85h-4.37c-49.56,0-99.11-.02-148.67.03-6.61,0-11.55-2.82-14.47-8.54-1.32-2.58-2.74-3.26-5.41-3.25-23.39.08-46.78.03-70.17.07-3.3,0-5.78-.62-5.84-4.64-.06-3.95,1.41-5.44,5.9-5.44,23.13-.02,46.25-.04,69.38.03,2.93,0,4.84-.23,6.43-3.49,2.5-5.11,7.07-7.88,13.16-7.87,51.28.05,102.55.03,153.83.04,1.29,0,2.58.13,4.21.22Z"/>
  <path class="cls-1" d="M633.46,442.24c-1.3,11.07-2.59,22-3.93,33.35-1.79,0-3.34,0-4.89,0-46.78,0-93.56-.03-140.34.03-8.07.01-14.32-2.68-18.18-10.18-.53-1.03-2.73-1.67-4.16-1.68-23.52-.1-47.04-.07-70.57-.08-4.43,0-5.73-1.21-5.67-5.13.06-3.83,1.31-4.93,5.91-4.93,23.13-.02,46.25-.06,69.38.05,3.08.02,5-.61,6.44-3.65,2.54-5.36,7.36-8.05,13.1-8.06,50.48-.11,100.96-.06,151.44-.04.25,0,.51.1,1.47.32Z"/>
  <path class="cls-1" d="M644.33,351.87c-.99,8.32-1.77,16.43-2.98,24.48-1.32,8.83-1.49,8.8-10.56,8.8-44.54,0-89.08-.01-133.62.01-7.6,0-13.53-2.55-17.09-9.77-.56-1.13-2.98-1.87-4.54-1.87-23.26-.12-46.52-.09-69.78-.08-3.23,0-6.22-.29-6.55-4.48-.3-3.77,1.37-5.71,5.22-5.75,7.53-.07,15.07-.03,22.6-.03,16.12,0,32.25-.06,48.37.06,2.71.02,4.28-.76,5.53-3.27,2.77-5.58,7.66-8.43,13.76-8.45,49.3-.09,98.59-.04,147.89-.02.38,0,.75.16,1.76.38Z"/>
</svg>